<svg xmlns="http://www.w3.org/2000/svg" viewBox="0 0 158.53 67.88"><defs><style>.cls-1{fill:#fff;}</style></defs><title>Asset 3</title><g id="Layer_2" data-name="Layer 2"><g id="Layer_1-2" data-name="Layer 1"><path d="M38.34,46.82v-1l-.15,0-.22.44c-.26.65-.58,1.29-.78,2-.25.87-1,1.27-1.51,2a1.2,1.2,0,0,0,.15,1.81c1,.86,2.07,1.7,3.07,2.59a.92.92,0,0,1,.29.74,1.37,1.37,0,0,0,.34,1.55,2,2,0,0,1,.37,2.26c-.31.94-.51,1.92-.76,2.89,0,.1,0,.22,0,.29a4.17,4.17,0,0,1-.41.43c-.09-.18-.26-.38-.23-.54.14-.68.32-1.35.51-2s.38-1.18.51-1.78a1.23,1.23,0,0,0-.17-.76,1.49,1.49,0,0,0-.47-.53,1.09,1.09,0,0,1-.4-1.42c.18-.43,0-.68-.32-1C37.05,53.83,36,53,35,52.1c-.4-.32-.78-.55-1,.16-.06.15-.29.23-.51.4.82.29.79.89.68,1.52-.23,1.31-.48,2.63-.69,4-.17,1.08-.28,2.18-.43,3.26-.09.58-.19,1.15-.32,1.71,0,.11-.16.19-.25.28-.09-.11-.26-.23-.25-.33.07-.64.21-1.28.28-1.92.12-1,.16-2,.29-3,.08-.59.31-1.15.39-1.74.12-.84.18-1.7.23-2.55a.46.46,0,0,0-.27-.34.63.63,0,0,0-.48.13,1.28,1.28,0,0,0-.49,1.27c.11.4,0,.52-.49.61a5.6,5.6,0,0,1-1.41.28c-.5,0-1,.32-1.66.22a5.9,5.9,0,0,0-1.7.2s-.09,0-.12,0c-.94-.54-1.86,0-2.81.06,0-.1-.06-.19-.1-.27s-.13-.3-.24-.34a.38.38,0,0,0-.34.15.52.52,0,0,0,.11.41c.83.91,1.65,1.84,2.52,2.71,1.23,1.23,2.49,2.41,3.73,3.62a1.2,1.2,0,0,1,.36.54,2,2,0,0,1,0,.63c-.25-.06-.58,0-.73-.18-.86-.88-1.66-1.83-2.51-2.71q-3-3.12-6.05-6.19c-.82-.83-1.68-1.62-2.53-2.42-.08-.08-.25-.06-.37-.11s-.34-.11-.38-.22c-.35-1-1.2-1.39-2-1.86a.79.79,0,0,1-.24-.55.79.79,0,0,0-.51-.78c-.51-.2-.62-.68-.69-1.17s-.06-.74-.57-.75a.31.31,0,0,1-.2-.14L12.18,45c-.14-.26-.31-.51-.47-.76l-.19,0c-.19.52-.38,1-.55,1.55-.37,1.14-.71,2.28-1.09,3.42a.86.86,0,0,1-.42.46,5.29,5.29,0,0,0-2.1,1.82C6.18,53,5,54.56,3.82,56.05A11,11,0,0,1,2.6,57.19c-.39.34-.68.2-.9-.15l2.39-2.87C5,53.12,5.84,52.08,6.7,51c.31-.39.54-.84.86-1.22a1.66,1.66,0,0,1,.75-.6A1.52,1.52,0,0,0,9.48,48l1.2-4.13c.13-.44-.37-1.43-.8-1.45-.82,0-1.12-.6-1.42-1.2a3.44,3.44,0,0,0-2.43-2,2.49,2.49,0,0,1-1.67-2A5.62,5.62,0,0,0,3,34.42a2.91,2.91,0,0,1-.77-2.25,2.71,2.71,0,0,0-.88-2.34A1.67,1.67,0,0,1,1,28.15a1.45,1.45,0,0,0-.11-.92,2.59,2.59,0,0,1-.38-2.15,2.12,2.12,0,0,0-.24-1.35A1.55,1.55,0,0,1,.6,21.59c.45-.39.19-.77.07-1.08A1.09,1.09,0,0,1,.82,19.3c.13-.16.07-.46.07-.69s0-.6,0-.9A10.44,10.44,0,0,0,1,16.48a1.39,1.39,0,0,1,1.24-1.69c.15,0,.26-.24.37-.38a.2.2,0,0,0,0-.17c-.37-1.46.58-2.38,1.36-3.38a.74.74,0,0,0,.13-.48c-.05-.55.24-.78.71-.71s.6-.14.76-.6A11.38,11.38,0,0,1,6.67,7.25s.09-.1.14-.1c1-.06,1.41-1.05,2.26-1.32a.82.82,0,0,0,.36-.31,2.72,2.72,0,0,1,2.35-1.14,1.06,1.06,0,0,0,.56-.17,18.43,18.43,0,0,0,1.82-1.6c.59-.62.89-.73,1.59-.26.32.21.52.24.8-.08.44-.5.94-.95,1.42-1.41A1.23,1.23,0,0,1,19.53.73a2.23,2.23,0,0,0,2.36-.1A2,2,0,0,1,23.06.31c.84.19,1.76,0,2.53.5.28.2,1.3-.11,1.54-.39.43-.52.74-.55,1.28-.14a3.68,3.68,0,0,1,.35.33c.07.07.12.19.2.21a17.54,17.54,0,0,0,2.32.68,9.71,9.71,0,0,0,1.51-.09,1.56,1.56,0,0,1,1.33,1c.3.54.62.67,1.15.36a1.07,1.07,0,0,1,.63-.13c.58.11,1.13.43,1.77.2.13,0,.37.19.54.32A9.71,9.71,0,0,0,39.32,4a3.75,3.75,0,0,1,2,2.37.64.64,0,0,0,.23.39c.68.4,1.36.8,2.07,1.14s1.42.8,1.48,1.59A4.19,4.19,0,0,0,46,11.68,6.86,6.86,0,0,1,47,14a4.69,4.69,0,0,0,.65,1.09c.08.12.2.21.27.33.44.87.9,1.73,1.31,2.62a.55.55,0,0,1-.11.51c-.29.23-.24.41-.1.72a9.69,9.69,0,0,1,.35,1.23,3.62,3.62,0,0,0,.3.77,1.9,1.9,0,0,1,.15,1.37,9.32,9.32,0,0,0,0,1.83c0,.24.07.47.06.71-.06,1-.15,2.06-.19,3.09a2.29,2.29,0,0,1-.51,1.22,2,2,0,0,0-.46,1.44,2.73,2.73,0,0,1-.61,2.65,7.75,7.75,0,0,0-.39.94c-.14.28-.25.63-.48.78a.6.6,0,0,0-.3.79,1.09,1.09,0,0,1-.26,1.26.63.63,0,0,0-.17.24,6.34,6.34,0,0,1-2.2,3.16c-.56.54-1,1.18-1.82,1.37a.24.24,0,0,0-.17.15c-.23,1-1.14,1-1.9,1.26a2.09,2.09,0,0,0-1.22,1,3.84,3.84,0,0,0-.59,2,1.31,1.31,0,0,1-.18.38Zm-1.57-5.16.14,0a1.11,1.11,0,0,0,.21-.32c.36-1.05.74-2.1,1-3.17A6.63,6.63,0,0,0,38.08,35a16,16,0,0,1-.38-2.83c0-.86.23-1.73.2-2.59a33.24,33.24,0,0,0-.4-3.44c0-.2-.3-.53-.43-.51a1.91,1.91,0,0,1-1.61-.76c-.78-.79-1.79-.63-2.74-.65a1.28,1.28,0,0,0-.78.47,1.4,1.4,0,0,1-1.57.43c-.3-.09-.57-.3-.87-.39-.15-.05-.43,0-.5.06a1.81,1.81,0,0,1-1.75.67A1.12,1.12,0,0,0,26,26.73c0,.32,0,.64,0,1,0,.09-.13.17-.2.26-.09-.09-.25-.17-.26-.27a7.85,7.85,0,0,1,0-.84c0-1-.07-1-1-.93-.65,0-1.4.4-1.93-.21-.67-.78-1.64-.73-2.47-1.05-.4-.16-.8-.33-1.18-.52s-.82-.44-1.23-.66a5.58,5.58,0,0,1-.69-.35.52.52,0,0,0-.74,0c-.61.51-1.28.94-1.87,1.47a2.37,2.37,0,0,0-.54.91,3.37,3.37,0,0,0,0,.72q-.63,5-1.29,10c0,.13-.15.36-.22.36-.54,0-1.09-.11-1.63-.16l-.87-.08c.17.29.32.59.51.85.07.09.25.11.39.13l1.79.32c0,2.21.82,4.23,2,5a6.4,6.4,0,0,0,0-.76c-.15-1-.33-2.08-.44-3.13a4.1,4.1,0,0,1,.18-1.13h.22a3.29,3.29,0,0,1,.07,1A2.68,2.68,0,0,0,15.28,41c.1.12.42.24.53.17.28-.17.73-.49.69-.66-.1-.51.17-.73.45-1a33.09,33.09,0,0,0,2.84-3.21,3.64,3.64,0,0,1,2-1.46c.75-.23,1.19,0,1.24.73a1.41,1.41,0,0,1-.12.42c-.12-.08-.25-.16-.36-.25s-.36-.33-.54-.5a2.35,2.35,0,0,0-.46.7,1.85,1.85,0,0,0,0,1c.07.21.39.49.57.47a3.58,3.58,0,0,1,2.11.74,2.3,2.3,0,0,0,3-.31,1.9,1.9,0,0,1,1.62-.58A1.07,1.07,0,0,0,30,35.6c-.24-.51-.59-.56-.94-.14-.07.08-.24.19-.28.17a.52.52,0,0,1-.21-.32.58.58,0,0,1,.75-.66,5.46,5.46,0,0,1,.9.46c.15.09.3.31.43.3.68-.08.92.45,1.27.83s.55.58.83.85c1.11,1.1,2.72,1.79,2.9,3.64,0,.14.32.25.49.37a2,2,0,0,0,.28-.46c.14-.52.24-1,.36-1.57l.18,0C37.39,40,36.83,40.8,36.77,41.66Zm-3,2.26-.2.07-.32-.44c-.28-.38-.58-.75-.85-1.14s-.56-.34-.91-.11-.89.53-1.32.82c-2,1.28-4.23.93-6.4.94A.49.49,0,0,1,23.5,44c-.94-.48-1.9-.92-2.8-1.46s-.95-.65-1.55.28c-.42.64-.79,1.31-1.18,2l1.57.23-.05.35.76.35c.3.13.74.41.84-.05.16-.75.5-.53.87-.29a7.23,7.23,0,0,0,5.25.76c.27,0,.55-.29.77-.23.49.13.78-.14,1.14-.36s.9-.5,1.36-.75l.13.18a3.3,3.3,0,0,0-.26.39c-.06.11-.16.3-.12.36.24.31.51.81.78.82a1,1,0,0,0,1.05-.67,2.09,2.09,0,0,1,.65-1.2c.14-.14.55-.25.61-.18.42.47.93.24,1.51.31-.11-1.11-.9-1.78-1.25-2.68l-.19.08ZM25,43.86c2-.1,3.72-.27,5.22-1.34a2.14,2.14,0,0,0,.39-.56c-.24-.09-.48-.27-.7-.25-1.07.08-2.13.29-3.2.31-1.63,0-3.25-.09-4.88-.13a1.36,1.36,0,0,0-.42.13c.06.15.07.36.18.44A6.54,6.54,0,0,0,25,43.86Zm5.76-8.07a4.36,4.36,0,0,0-.12.44c-.1,1.13-.14,1.18-1.24,1.36a5.53,5.53,0,0,0-1.22.27c-.16.06-.22.35-.33.53.12.06.27.2.36.17.61-.2.95.17,1.22.6s.48.91.72,1.37a4,4,0,0,0,.3.42c.1-.17.1-.27.06-.35-.19-.4-.41-.78-.56-1.19-.06-.14.05-.34.08-.52.14.09.33.15.4.28.19.32.32.68.5,1a7.58,7.58,0,0,0,.4.68l.18-.1-.69-1.65.08-.14,3.06,1.11C34,39.69,31.57,36.29,30.74,35.79Zm-9.45,5a8.89,8.89,0,0,1,.22-.89,4.92,4.92,0,0,1,.3-.61l.51.35.38-1,.31.06-.17,2,.23,0a7.24,7.24,0,0,1,.16-1.25,7.49,7.49,0,0,1,.61-1.19,19.77,19.77,0,0,0-2.07-.6,1,1,0,0,1-.87-.91,4.24,4.24,0,0,1,0-.51l-.15-.06c-.41.68-.79,1.38-1.22,2.05s-.87,1.26-1.31,1.89l.2.17c.18-.22.35-.44.54-.64a1.31,1.31,0,0,1,.36-.23c0,.14.1.28.13.42a4.18,4.18,0,0,1,.09.41c.51-.11.19-1.49,1.12-.61l.44-.65C21.65,39.65,21,40.22,21.29,40.8ZM28,52.28l.16-.08a6.17,6.17,0,0,0-.26-1,1.19,1.19,0,0,1,.3-1.55c.12-.1.05-.7-.13-.86-.51-.43-1.65.07-1.79.76a5.9,5.9,0,0,0-.06,1.19c0,.14.12.28.19.41a1.15,1.15,0,0,0,.38-.2c.37-.39.53-.29.69.18A9.33,9.33,0,0,0,28,52.28Zm-3.37-1.49c.64-.88.87-2.45.43-3A4.55,4.55,0,0,0,24.66,50.79Zm6.14,2.52a3.88,3.88,0,0,0-.42-3.45Zm9.61-16.76a7.78,7.78,0,0,0-1-.07c-.13,0-.36.21-.35.3,0,.25.08.62.24.69C39.66,37.64,40.36,37,40.41,36.55Zm-38.54-7,.3-.07a6.2,6.2,0,0,0,.07-1c0-.17-.17-.32-.26-.49-.19.16-.56.34-.54.46A5.36,5.36,0,0,0,1.87,29.54Zm28.92-4.72.55-.43-.72-.71-.5.58Zm4.5-.74c.45.31.79.66,1.29.36a.52.52,0,0,0-.06-.44C36.14,23.58,35.76,23.73,35.29,24.08ZM26.94,53.62h.16a2.07,2.07,0,0,0-.16-1.9ZM17,46.86l-.19,0a3.56,3.56,0,0,0-.13,2.37ZM4.9,12.26l.17-.21a6.36,6.36,0,0,0-.63-.64.45.45,0,0,0-.39.09.38.38,0,0,0,0,.35A7.53,7.53,0,0,0,4.9,12.26ZM32.49,48.84l-.24.07.51,1.79.3-.1Zm-30-32.65.12-.37a7.76,7.76,0,0,0-.9-.28s-.13.28-.2.43Zm11-12.5c-.52.48-.37,1,.45,1.42ZM46.4,36.81l.19-.06-.31-1.26C45.84,35.86,45.94,36.37,46.4,36.81ZM29,49.44h.19c.1-.18.33-.45.28-.53a1.15,1.15,0,0,0-.58-.34c-.06,0-.26.13-.25.15C28.74,49,28.87,49.2,29,49.44ZM.35,22.55.77,23c.14-.16.36-.3.4-.48s-.22-.3-.35-.44Zm21.76,1.62.54-.46c-.15-.12-.29-.31-.45-.33s-.31.16-.47.25ZM30.33,2.23l-.55-.63c-.08.09-.25.23-.24.26a4.48,4.48,0,0,0,.48.58A2.62,2.62,0,0,0,30.33,2.23ZM47.41,32.92c.69-.33.77-.67.36-1.36ZM6.91,9.9c0-.58-.34-.76-.73-1C6,9.54,6.38,9.69,6.91,9.9ZM25.1,22.48l-.75.08,0,.16.78.57ZM3,17.58l.09-.18-1.05-.5L2,17.1A1.06,1.06,0,0,0,3,17.58ZM32.75,4.16l-.08.16,1,.49C33.67,4.23,33.39,4.06,32.75,4.16ZM1.24,19.67,1.16,20l1.05.21.06-.29Zm29.22,1.17c-.14.24-.31.41-.27.46a2.06,2.06,0,0,0,.47.46.68.68,0,0,0,.23-.18C30.78,21.36,30.66,21.16,30.46,20.84ZM21.91,49.06,21.66,49l-.36,1.21.24.07ZM35.76,22.3l-.24-.05-.26,1.13.3.06ZM6.94,7.56l-.21.27.76.52.17-.23ZM5.34,38.25l.21-.14-.62-1-.2.12Z"/><path d="M74.46,51.17a2.86,2.86,0,0,1,0,.44c0,1.38,0,2.76,0,4.14,0,.55-.17.72-.71.72-5.12,0-10.24,0-15.36,0q-3.12,0-6.23.07c-.51,0-.65-.15-.64-.65,0-1,0-2.07,0-3.11,0-.55.09-.83.75-.81,1.26,0,2.52,0,3.78-.08s2.08-.63,2.15-2a32.63,32.63,0,0,0-.06-4.31,3.2,3.2,0,0,0-.73-1.38c-.18-.25-.23-.38,0-.58a2.22,2.22,0,0,0,.73-1.77c0-.9,0-1.8,0-2.7a1.92,1.92,0,0,0-2.16-2c-1.28,0-2.56,0-3.84,0-.51,0-.64-.19-.64-.67,0-3.81,0-7.63,0-11.44,0-3.24,0-6.48-.09-9.71,0-.56.18-.69.67-.69l9,0c3.84,0,7.68,0,11.52,0,4.88,0,9.76-.09,14.63-.1A6.58,6.58,0,0,1,93.46,23a7.11,7.11,0,0,1-4.3,4.54,24.15,24.15,0,0,1-5.74,1.83,2.51,2.51,0,0,0-.43.17,4.92,4.92,0,0,0,1.88,1.75,9.87,9.87,0,0,0,5.39,1.09c.54,0,.73.1.72.68,0,6.65,0,13.31-.07,20,0,1-.06,1.92-.07,2.88,0,.36-.11.47-.48.47-2.28,0-4.56,0-6.84,0A6.87,6.87,0,0,1,77,49.74q0-6.54,0-13.07c0-2.76-.06-5.52-.08-8.27,0-.93,0-.93.91-1a3.4,3.4,0,0,0,3.22-3.14,3.32,3.32,0,0,0-2.54-3.64,3.37,3.37,0,0,0-3.21.86,2.34,2.34,0,0,0-.74,1.83q0,4.41,0,8.82c0,1.65,0,3.31,0,5v.79c-.14,0-.2.05-.21,0a2.68,2.68,0,0,0-2.36-.88c-1.3,0-2.6,0-3.9,0-.39,0-.45.25-.45.56q0,3.84,0,7.68c0,1.17,0,2.35,0,3.53,0,.78.08,1.56.07,2.34,0,.55.25.68.74.67,1.37,0,2.76,0,4.13-.07A8.42,8.42,0,0,0,74.46,51.17Zm-8-8.22h-.24c0-1.35,0-2.71,0-4.06A1.79,1.79,0,0,0,64.3,37c-.73,0-1.47,0-2.21,0-2.33,0-2.83.83-2.79,3,0,1.22,0,2.43,0,3.65,0,2.18,0,4.35.08,6.52.06,1.26.75,1.78,2,1.79,1.06,0,2.12,0,3.17-.09a1.69,1.69,0,0,0,1.73-1.64c.08-1,.11-2.11.12-3.17C66.48,45.71,66.47,44.33,66.47,43Z"/><path d="M92.69,44.27c0-2.9,0-5.8,0-8.7A3,3,0,0,1,96,32.41l12.66,0a3,3,0,0,1,3.3,3c.09,1.56,0,3.12,0,4.68,0,4.07,0,8.15,0,12.23,0,1.34-.2,2.65-1.49,3.39a4.26,4.26,0,0,1-1.92.51c-4.12.06-8.24.07-12.35.06-2.3,0-3.44-1.16-3.44-3.43,0-2.88,0-5.76,0-8.63Zm10.91.29h0V43.24c0-1.72,0-3.43,0-5.15a1.15,1.15,0,0,0-.83-1.07,1,1,0,0,0-1.25.26,2.61,2.61,0,0,0-.54,1.38c0,4,0,8,0,12a1.38,1.38,0,0,0,1.34,1.52,1.34,1.34,0,0,0,1.34-1.49Q103.6,47.62,103.6,44.56Z"/><path d="M143.83,32.48h6.24c2.3,0,3.42,1.14,3.4,3.43,0,1.26,0,2.52,0,3.78,0,.47-.09.68-.63.67-1.57,0-3.15,0-4.73,0-.74,0-1.48,0-2.22.07-.43,0-.57-.15-.57-.55s0-1.08,0-1.62A1.27,1.27,0,0,0,144,37a1.25,1.25,0,0,0-1.19,1.38c0,.94,0,1.88,0,2.82,0,.53.19.7.7.69,2.84,0,5.68,0,8.51,0,1.5,0,1.44-.26,1.44,1.47,0,3.1,0,6.19,0,9.29a3.28,3.28,0,0,1-1.52,3.07,3.45,3.45,0,0,1-1.58.47q-6.37.06-12.77,0a2.91,2.91,0,0,1-3-3c0-1.4,0-2.8,0-4.2,0-.45.13-.61.57-.61l7,0c.54,0,.79.19.74.78a15.7,15.7,0,0,0,0,1.68A1.22,1.22,0,0,0,144,52.23a1.31,1.31,0,0,0,1.3-1.1c.08-.61.07-1.23.09-1.85,0-.46,0-.92,0-1.38s-.19-.78-.74-.78c-2,0-4.08,0-6.12,0H135.1c-.42,0-.6-.16-.6-.61,0-3.68,0-7.36,0-11a3,3,0,0,1,3.07-3h6.24Z"/><path d="M123.21,56.21c-2,0-3.92-.06-5.88,0a3.3,3.3,0,0,1-3.49-3.64,33.08,33.08,0,0,0,0-3.59c0-.5.19-.68.66-.68l7,0c.33,0,.47.11.46.46,0,.73,0,1.48,0,2.21a1.19,1.19,0,0,0,2.37,0c.05-1,0-2.11.07-3.17,0-.43-.14-.62-.59-.62-1.88,0-3.75,0-5.63,0-1.26,0-2.52,0-3.78,0-.46,0-.58-.18-.58-.61,0-3.62,0-7.23,0-10.85a3,3,0,0,1,1.9-3.09,5.06,5.06,0,0,1,1.7-.22c3.91,0,7.83,0,11.74,0a3,3,0,0,1,3.23,3c0,1.49,0,3,0,4.49,0,.38-.1.58-.54.58-2.36,0-4.72,0-7.08,0-.31,0-.42-.12-.42-.43,0-.59,0-1.19,0-1.79A1.24,1.24,0,0,0,123.14,37,1.2,1.2,0,0,0,122,38.29c0,1,0,2,0,2.93,0,.46.17.64.64.64,2.75,0,5.51,0,8.27,0,1.66,0,1.65-.07,1.64,1.58,0,3,0,6.08,0,9.11a3.23,3.23,0,0,1-1.78,3.27,5.69,5.69,0,0,1-2.15.37c-1.77,0-3.55,0-5.33,0Z"/><path d="M85.54,63.68c0,1.15,0,2.34,0,3.53,0,.39,0,.66-.52.62s-.69,0-.69-.6c0-2.07-.07-4.15-.09-6.23,0-.26-.18-.63.32-.7.75-.11,1,0,1.18.52.32,1,.62,2.11.93,3.16a.74.74,0,0,0,.27.4V61.51c0-.22,0-.44,0-.66s0-.69.49-.7.72,0,.71.59c0,2,0,4,.05,6.05,0,0,0,.08,0,.12-.06.82-.06.8-.86.84-.36,0-.54,0-.64-.42-.31-1.12-.65-2.22-1-3.33C85.61,63.87,85.56,63.75,85.54,63.68Z"/><path d="M141.25,63.77c0,.35.05.69.06,1,0,.81,0,1.63,0,2.45,0,.42-.17.51-.55.48s-.66.07-.66-.49c0-2.17,0-4.35,0-6.53,0-.42.15-.45.56-.5.8-.12.86.34,1,.89.28,1.1.61,2.19.92,3.28a2.49,2.49,0,0,0,.22.42c0-1.39,0-2.68,0-4,0-.48.11-.6.6-.62s.56.2.56.6c0,2,0,4-.05,6,0,.27,0,.55-.05.86a6,6,0,0,1-1,0,.66.66,0,0,1-.39-.41c-.32-1.09-.6-2.19-.91-3.28a1.08,1.08,0,0,0-.15-.28Z"/><path d="M116.94,63.51a8.11,8.11,0,0,1,.31,1.26c0,.94,0,1.87,0,2.87a4.55,4.55,0,0,1-.9,0c-.1,0-.23-.25-.24-.39,0-.72,0-1.44-.08-2.15a1.27,1.27,0,0,0-.26-.69.75.75,0,0,0-.6-.12c-.07,0-.15.29-.15.45,0,.82,0,1.64,0,2.46,0,.57-.36.44-.69.47s-.53-.05-.53-.48c0-2.16,0-4.32,0-6.47,0-.4.1-.59.54-.56s1,0,1.5,0c1.06,0,1.35.28,1.42,1.34C117.33,62.24,117.46,63,116.94,63.51Zm-1.87-.35c.9.1,1-.12,1-1s-.19-1.06-1-1Z"/><path d="M154,67.63l-.18.09c-1,.09-1,.09-1-.9,0-2,0-4,0-5.93,0-.53.13-.77.71-.7s1.12,0,1.68.08a1,1,0,0,1,1,1c0,.82.3,1.69-.29,2.23.12.66.27,1.2.31,1.74,0,.79,0,1.59,0,2.4-1,.24-1.11.14-1.17-.88,0-.52,0-1,0-1.56a1,1,0,0,0-.13-.62,1.08,1.08,0,0,0-.66-.29c-.05,0-.23.31-.24.49,0,.66,0,1.32,0,2C154,67.08,154,67.37,154,67.63Zm0-4.37c.47.06.91.1,1-.38a3.16,3.16,0,0,0,0-1.3c0-.16-.42-.28-.66-.34-.08,0-.31.18-.32.29C154,62.1,154,62.68,154,63.26Z"/><path d="M109.4,64.25c0-.85.07-1.73.13-2.61a1.6,1.6,0,0,1,1.76-1.57c1.12,0,1.74.45,1.77,1.49,0,1.61,0,3.23,0,4.83,0,1-.66,1.47-1.68,1.47a1.65,1.65,0,0,1-1.84-1.49C109.43,65.67,109.43,65,109.4,64.25Zm2.55-.18h0c0-.81,0-1.63,0-2.44a.82.82,0,0,0-.58-.5c-.16,0-.51.31-.52.49,0,1.59,0,3.18,0,4.77,0,.16.3.44.48.46a.84.84,0,0,0,.59-.36.93.93,0,0,0,.11-.56C112,65.31,112,64.69,112,64.07Z"/><path d="M83.3,64.42c0,.63,0,1.41-.15,2.18s-.72,1.27-1.79,1.28c-.91,0-1.63-.45-1.67-1.28-.09-1.67-.13-3.35-.06-5,0-1,.75-1.46,1.84-1.42a1.48,1.48,0,0,1,1.67,1.54C83.21,62.56,83.24,63.41,83.3,64.42Zm-1.24-.17h0c0-.84,0-1.68-.16-2.51a.83.83,0,0,0-.51-.58c-.37-.11-.62.2-.63.55,0,1.56,0,3.11.06,4.67a.51.51,0,0,0,.71.51.86.86,0,0,0,.48-.6C82.1,65.62,82.06,64.93,82.06,64.25Z"/><path d="M93.25,67.86c-1.62.06-1.93-1.15-1.78-2.4,0-.13.42-.27.65-.29s.34.19.4.35,0,.53.12.75.32.52.51.54a.89.89,0,0,0,.7-.36,1,1,0,0,0-.23-1.25c-.45-.46-.93-.87-1.39-1.32a2.45,2.45,0,0,1-.37-3.2,1.76,1.76,0,0,1,1.87-.48,1.39,1.39,0,0,1,1.11,1.26c0,.19,0,.39.06.59,0,.4,0,.64-.53.64s-.68-.11-.61-.6a.62.62,0,0,0-.05-.41c-.14-.19-.37-.5-.5-.47s-.55.33-.53.49a2,2,0,0,0,.38,1.07,13.52,13.52,0,0,0,1.32,1.3A2.53,2.53,0,0,1,95.15,66,1.65,1.65,0,0,1,93.25,67.86Z"/><path d="M105.26,67.77a2.37,2.37,0,0,1-.72,0,.78.78,0,0,1-.45-.38,3.22,3.22,0,0,1-.17-1.06c0-.55-.38-.5-.73-.54s-.51.17-.55.52-.13.94-.21,1.46l-1.18,0c.14-1,.26-1.83.4-2.71.23-1.45.47-2.91.69-4.37,0-.34.19-.46.55-.45,1.1,0,1.12,0,1.31,1.1.36,1.94.68,3.89,1,5.83A5.47,5.47,0,0,1,105.26,67.77Zm-2.37-3c.39,0,.74.16.68-.32-.07-.65-.18-1.3-.28-1.94h-.12Z"/><path d="M137.42,67.63c-1,.21-1.14.12-1.24-.84a3.93,3.93,0,0,1-.06-.48c0-.52-.27-.63-.76-.63s-.53.36-.59.71c0,.13,0,.28,0,.41-.11,1-.2,1-1.28.84.07-.52.13-1,.21-1.57.29-1.8.59-3.59.88-5.38,0-.31.18-.46.51-.44a3.28,3.28,0,0,1,.77,0,.7.7,0,0,1,.45.42c.41,2.26.79,4.52,1.17,6.78C137.46,67.51,137.43,67.55,137.42,67.63Zm-1.91-5.22h-.16c-.08.58-.17,1.16-.23,1.74,0,.17,0,.45.12.51s.38,0,.59,0C135.71,63.84,135.61,63.12,135.51,62.41Z"/><path d="M74,65.26c0,.33.06.67.13,1a.64.64,0,0,0,.76.59.6.6,0,0,0,.57-.76,3.56,3.56,0,0,0-.6-1.2,12,12,0,0,0-1.18-1.19,2.35,2.35,0,0,1-.54-2.44A1.57,1.57,0,0,1,75,60.16a1.49,1.49,0,0,1,1.46,1.46,3,3,0,0,1,0,.42c0,.28.12.63-.41.6s-.78.06-.69-.56a.87.87,0,0,0-.11-.57c-.11-.16-.36-.35-.5-.32s-.47.28-.47.42a2.13,2.13,0,0,0,.3,1.1A10,10,0,0,0,75.81,64a2.71,2.71,0,0,1,.71,2.81,1.47,1.47,0,0,1-1.61,1.06c-1,0-1.63-.35-1.83-1a3.4,3.4,0,0,1-.12-.71C72.9,65.13,73,65.08,74,65.26Z"/><path d="M107.2,65c.15-1.39.31-2.77.45-4.16a.7.7,0,0,1,1.07-.57c.1.06.14.31.13.45-.22,1.89-.46,3.76-.69,5.64,0,.1,0,.2,0,.3-.12,1.16-.3,1.31-1.45,1.1a.53.53,0,0,1-.33-.32c-.35-2.25-.69-4.5-1-6.75a.65.65,0,0,1,.26-.44c.33.1.9-.34,1,.39.13,1.29.28,2.58.42,3.87,0,.17,0,.33.08.5Z"/><path d="M70.06,60.33c-.09.8-.17,1.57-.26,2.33-.18,1.51-.4,3-.55,4.51,0,.5-.2.69-.69.63a2.61,2.61,0,0,0-.48,0c-.36,0-.51-.09-.57-.49-.31-2.17-.67-4.33-1-6.5a.75.75,0,0,1,.23-.5c.34.08.91-.35,1,.36.14,1.17.26,2.34.39,3.51a2.61,2.61,0,0,0,.23.88c.11-1,.23-2.09.34-3.13,0-.24,0-.48.07-.72C68.91,60.23,68.91,60.23,70.06,60.33Z"/><path d="M131.49,67.56l-.26.08c-.93,0-.93,0-.93-.87,0-2,0-4,0-5.94,0-.59.18-.77.75-.71s.88,0,1.32,0a1.29,1.29,0,0,1,1.4,1.32,6.53,6.53,0,0,1,0,1.25c-.1,1.14-.56,1.57-1.69,1.53-.47,0-.63.12-.61.6C131.52,65.76,131.49,66.67,131.49,67.56Zm0-6.35v1.61c0,.38.17.49.53.43.54-.1.66-.32.61-1.27C132.55,61.21,132.38,61.07,131.45,61.21Z"/><path d="M65.87,66.78v1c-1,0-2,0-3,0-.1,0-.28-.26-.28-.4-.05-2.2-.06-4.39-.1-6.58,0-.33.14-.49.46-.49.8,0,1.6-.06,2.39,0s.25.59.33,1H64.38a.63.63,0,0,0-.24,0c-.92.28-.24,1-.4,1.5-.12.34,0,.61.51.58s.82,0,1.23,0c.15.9.15.9-.71,1s-1,.07-1,1.06c0,1.34,0,1.34,1.3,1.33Z"/><path d="M125.49,61.18c0,.68,0,1.24,0,1.79,0,.11.24.29.38.3.44,0,.88,0,1.4,0l0,1c-.47,0-.9,0-1.33,0s-.53.14-.51.53c0,.56,0,1.12,0,1.78h2.17v1.06h-1.89c-1.39,0-1.42,0-1.44-1.39,0-2,0-4,0-6.17.88,0,1.85,0,2.82,0,.1,0,.21.38.26.6s0,.47-.37.47Z"/><path d="M150.19,61.33c0,.25,0,.43,0,.6,0,.46-.12,1,.1,1.33s.81.13,1.24.12.43.32.44.64-.19.43-.53.4c-1.27-.12-1.27-.11-1.28,1.16s0,1.19,1.2,1.18h.06c.9,0,.9,0,.8,1H149V66.41c0-1.78,0-3.55,0-5.33,0-.79,0-.8.78-.79.65,0,1.31,0,2,0,.34,0,.47.13.44.46s0,.62-.46.59S150.72,61.33,150.19,61.33Z"/><path d="M150.68,26.4a3.93,3.93,0,1,1,7.85.1,3.83,3.83,0,0,1-3.92,3.82A3.78,3.78,0,0,1,150.68,26.4Zm7.25.12a3.46,3.46,0,0,0-3.29-3.44,3.36,3.36,0,0,0-3.35,3.41,3.28,3.28,0,0,0,3.32,3.23A3.38,3.38,0,0,0,157.93,26.52Z"/><path d="M57.93,60.39c.12,1,.12,1-.79,1-1.25,0-1.09-.17-1.1,1.13,0,1,0,1,1,.94s1,0,.79,1c-.4,0-.81,0-1.22,0s-.51.11-.51.47,0,.88,0,1.31.14.58.57.55,1,0,1.47,0c.28.93.19,1-.7,1-.66,0-1.32,0-2,0-.32,0-.47-.08-.47-.43,0-2.24,0-4.47,0-6.7,0-.12.15-.32.23-.32C56.07,60.38,57,60.39,57.93,60.39Z"/><path d="M99.46,64.35c0,1,0,2,0,2.86,0,.49-.21.56-.62.55s-.61,0-.61-.54c0-2.14,0-4.28-.06-6.42,0-.46.13-.65.61-.63.72,0,1.44,0,2.16,0,.47,0,.42.28.44.59s-.06.55-.45.5h-.12c-1.59,0-1.58,0-1.44,1.63,0,.29.12.44.43.43s.6,0,.9,0,.58.09.58.52-.16.56-.57.52S99.93,64.35,99.46,64.35Z"/><path d="M121.41,61.32h-.88c-.37,0-.64,0-.62-.54s.21-.6.66-.6c1.07,0,2.15,0,3.24,0,0,.21,0,.39.06.57.06.4-.12.52-.51.51-.85,0-.86,0-.84.86,0,1.52,0,3,.09,4.55,0,1.07,0,1.07-1.2,1Z"/><path d="M52,67.83v-4c0-.58,0-1.16,0-1.73s-.14-.62-.61-.62c-.28,0-.76.23-.8-.41s.09-.72.64-.7c1,0,1.91,0,2.87,0,.14,0,.4.21.4.32,0,.27.22.68-.3.76-.33,0-.76,0-1,.18s0,.6,0,.92c0,1.51,0,3,0,4.55,0,.76,0,.76-.79.76Z"/><path d="M146,64.53c0-.78,0-1.56,0-2.34s0-.84-.81-.81c-.47,0-.57-.15-.57-.58s.2-.5.55-.5c1,0,1.92,0,2.88,0,.34,0,.54.07.5.47s.05.63-.48.62c-.88,0-.9,0-.9.92,0,1.55,0,3.11,0,4.67,0,.39.16.82-.57.83s-.6-.39-.6-.8V64.53Z"/><path d="M61.9,67.83c-1,0-1.89,0-2.82,0-.12,0-.32-.28-.32-.44,0-1.31,0-2.63,0-4,0-.85,0-1.71-.07-2.57,0-.55.31-.5.65-.51s.61,0,.6.49c0,1.77,0,3.55,0,5.32,0,.46.08.69.59.6.13,0,.28,0,.41,0C62,66.64,62,66.64,61.9,67.83Z"/><path d="M70.92,64c0-1,0-2.08,0-3.12,0-.52.26-.53.63-.53s.59,0,.59.51c0,2,0,4.08,0,6.12,0,.44,0,.9-.68.86-.4,0-.54-.16-.53-.54,0-1.1,0-2.2,0-3.3Z"/><path d="M119.43,61.13c0,2,0,4,0,6,0,.51-.24.49-.57.51s-.62,0-.63-.45c0-2.15-.06-4.31-.13-6.46,0-.61.31-.59.74-.62s.42.33.43.62c0,.12,0,.24,0,.36Z"/><path d="M138.1,60.24a.69.69,0,0,1,.18-.06c.92,0,.91,0,.91.86,0,2,0,4,0,6,0,.41,0,.64-.54.62s-.65-.07-.64-.58c0-2.14,0-4.27,0-6.41C138.06,60.52,138.09,60.38,138.1,60.24Z"/><path d="M78.7,67.69H77.58V64.91c0-1.34,0-2.67-.06-4,0-.44.09-.68.59-.68s.61.16.61.63C78.69,63.1,78.7,65.36,78.7,67.69Z"/><path d="M54.3,47.4a12.71,12.71,0,0,1,0-1.38,1.81,1.81,0,0,1,.31-.6,2.92,2.92,0,0,1,.65.49c.1.13,0,.38,0,.58,0,.76,0,1.52,0,2.28,0,.43-.21.65-.59.65s-.41-.33-.4-.64,0-.92,0-1.38Z"/><path d="M70.64,47.33a11.38,11.38,0,0,1,0-1.43c0-.19.24-.36.37-.54.2.16.56.31.56.49,0,1,0,2.07,0,3.1,0,.15-.34.34-.55.39s-.34-.28-.35-.46c-.05-.51,0-1,0-1.55Z"/><path d="M70.57,40.91a3.81,3.81,0,0,1,0-.83c0-.2.22-.52.33-.52s.58.19.59.32a17.81,17.81,0,0,1,0,2.31c0,.11-.32.28-.49.29s-.33-.23-.34-.37a9.61,9.61,0,0,1,0-1.2Z"/><path d="M55.27,41a6.42,6.42,0,0,1-.11,1.16c0,.17-.34.32-.54.36s-.33-.24-.34-.39a17.2,17.2,0,0,1,0-2c0-.15.22-.43.32-.42s.54.14.6.31A3.64,3.64,0,0,1,55.27,41Z"/><path d="M89.39,62c0-.6-.11-1.19-.12-1.79,0-.37.23-.43,1-.3C90.5,61,90.27,61.57,89.39,62Z"/><path d="M74.44,43.08V44.6C73.49,44.14,73.48,43.84,74.44,43.08Z"/><path class="cls-1" d="M36.77,41.66c.06-.86.62-1.69.21-2.56l-.18,0c-.12.52-.22,1-.36,1.57a2,2,0,0,1-.28.46c-.17-.12-.47-.23-.49-.37-.18-1.85-1.79-2.54-2.9-3.64-.28-.27-.56-.56-.83-.85s-.59-.91-1.27-.83c-.13,0-.28-.21-.43-.3a5.46,5.46,0,0,0-.9-.46.58.58,0,0,0-.75.66.52.52,0,0,0,.21.32s.21-.09.28-.17c.35-.42.7-.37.94.14a1.07,1.07,0,0,1-1.12,1.62,1.9,1.9,0,0,0-1.62.58,2.3,2.3,0,0,1-3,.31,3.58,3.58,0,0,0-2.11-.74c-.18,0-.5-.26-.57-.47a1.85,1.85,0,0,1,0-1,2.35,2.35,0,0,1,.46-.7c.18.17.35.34.54.5s.24.17.36.25a1.41,1.41,0,0,0,.12-.42c-.05-.71-.49-1-1.24-.73a3.64,3.64,0,0,0-2,1.46A33.09,33.09,0,0,1,17,39.48c-.28.3-.55.52-.45,1,0,.17-.41.49-.69.66-.11.07-.43-.05-.53-.17a2.68,2.68,0,0,1-.76-2.35,3.29,3.29,0,0,0-.07-1h-.22a4.1,4.1,0,0,0-.18,1.13c.11,1.05.29,2.09.44,3.13a6.4,6.4,0,0,1,0,.76c-1.21-.76-2-2.78-2-5l-1.79-.32c-.14,0-.32,0-.39-.13-.19-.26-.34-.56-.51-.85l.87.08c.54.05,1.09.13,1.63.16.07,0,.2-.23.22-.36q.66-5,1.29-10a3.37,3.37,0,0,1,0-.72,2.37,2.37,0,0,1,.54-.91c.59-.53,1.26-1,1.87-1.47a.52.52,0,0,1,.74,0,5.58,5.58,0,0,0,.69.35c.41.22.81.46,1.23.66s.78.36,1.18.52c.83.32,1.8.27,2.47,1.05.53.61,1.28.25,1.93.21,1-.06,1-.05,1,.93a7.85,7.85,0,0,0,0,.84c0,.1.17.18.26.27.07-.09.19-.17.2-.26,0-.32,0-.64,0-1a1.12,1.12,0,0,1,1.24-1.25A1.81,1.81,0,0,0,29,24.81c.07-.1.35-.11.5-.06.3.09.57.3.87.39a1.4,1.4,0,0,0,1.57-.43,1.28,1.28,0,0,1,.78-.47c1,0,2-.14,2.74.65a1.91,1.91,0,0,0,1.61.76c.13,0,.4.31.43.51a33.24,33.24,0,0,1,.4,3.44c0,.86-.23,1.73-.2,2.59A16,16,0,0,0,38.08,35a6.63,6.63,0,0,1,.07,3.19c-.29,1.07-.67,2.12-1,3.17a1.11,1.11,0,0,1-.21.32ZM25,28.63a3,3,0,0,0-.92,0c-.64.23-.77-.13-1-.61a3.63,3.63,0,0,0-.77-1.11c-.09-.1-.39,0-.6,0s-.45.14-.59.06a1.68,1.68,0,0,0-1.43-.2,2.39,2.39,0,0,1-.64-.06,17.34,17.34,0,0,0-1.76-.12,8.2,8.2,0,0,0-1.28.23,2.39,2.39,0,0,0-1.85,1.6,5.84,5.84,0,0,0,.74,0c1.74-.2,3.43-.75,5.22-.54.42.05.89-.16,1.27,0a3.68,3.68,0,0,1,2.07,2,.86.86,0,0,1,0,.65c-.15.37,0,.59.31.64.6.12.74.54.81,1s.15,1.22.25,1.83a2.63,2.63,0,0,0,.18.54l.23,0Zm3.27,1.07a2.09,2.09,0,0,0,1.32,2,1.69,1.69,0,0,0,.6-.14,1.68,1.68,0,0,0-.15-.51c-.29-.4-.61-.77-1-1.31.37-.08.84-.26.88-.18.48.8,1.23.37,1.85.45a.72.72,0,0,0,.49-.27c.38-.4.73-.46,1.1-.06s.89,1.06,1.33,1.61l-.61.27,1.84,1,.11-.14c-.15-.17-.3-.34-.44-.52s-.21-.33-.17-.38c.29-.38,0-.52-.24-.71s-.28-.28-.45-.46l.27-.1.43-.19a2.69,2.69,0,0,0-.37-.3c-.29-.17-.6-.3-.89-.47a6.17,6.17,0,0,0-3.8-1,3.85,3.85,0,0,0-3,1.16,5.88,5.88,0,0,0-.49.85l.2.19Zm-6.91.53a5.18,5.18,0,0,0-.73,1c-.08.17.1.49.23.69s.35.05.5,0,.52-.42.77-.41c.56,0,.62-.39.7-.7a1,1,0,0,0-.23-.81,3.4,3.4,0,0,0-1.32-.79c-1.68-.4-3.37-.63-4.61,1a.67.67,0,0,1-.19.14c-.64.4-1.47.55-1.79,1.38a5,5,0,0,1-.43.63.34.34,0,0,0,.06.27.27.27,0,0,0,.26,0c.47-.35,1.11-.63,1.36-1.12.36-.69,1-.89,1.54-1.23.41-.26.85-.53,1.09.21a.37.37,0,0,0,.29.19,10.31,10.31,0,0,0,1.24-.07.47.47,0,0,0,.31-.26C20.75,29.7,20.75,29.69,21.34,30.23ZM36,28.93c.26-.12.61-.21.61-.29a.93.93,0,0,0-.27-.66,8.84,8.84,0,0,0-2-1.12,8.68,8.68,0,0,0-6.32.3c-.27.11-.53.25-.34.54a.69.69,0,0,0,.61.23c.8-.15,1.58-.37,2.37-.56a1.06,1.06,0,0,1,.35,0c1,.18,2.05.37,3.08.57a2.55,2.55,0,0,1,.47.23ZM24.14,35.22a.71.71,0,0,0-.68.86c0,.07.21.12.33.18Z"/><path class="cls-1" d="M33.73,43.92l-.34-1.72.19-.08c.35.9,1.14,1.57,1.25,2.68-.58-.07-1.09.16-1.51-.31-.06-.07-.47,0-.61.18a2.09,2.09,0,0,0-.65,1.2,1,1,0,0,1-1.05.67c-.27,0-.54-.51-.78-.82,0-.06.06-.25.12-.36a3.3,3.3,0,0,1,.26-.39l-.13-.18c-.46.25-.92.48-1.36.75s-.65.49-1.14.36c-.22-.06-.5.19-.77.23A7.23,7.23,0,0,1,22,45.37c-.37-.24-.71-.46-.87.29-.1.46-.54.18-.84.05l-.76-.35.05-.35L18,44.78c.39-.67.76-1.34,1.18-2,.6-.93.58-.87,1.55-.28s1.86,1,2.8,1.46a.49.49,0,0,0,.23.08c2.17,0,4.4.34,6.4-.94.43-.29.89-.53,1.32-.82s.64-.29.91.11.57.76.85,1.14l.32.44Z"/><path class="cls-1" d="M25,43.86a6.54,6.54,0,0,1-3.41-1.4c-.11-.08-.12-.29-.18-.44a1.36,1.36,0,0,1,.42-.13c1.63,0,3.25.15,4.88.13,1.07,0,2.13-.23,3.2-.31.22,0,.46.16.7.25a2.14,2.14,0,0,1-.39.56C28.7,43.59,27,43.76,25,43.86Z"/><path class="cls-1" d="M30.74,35.79c.83.5,3.29,3.9,3.2,4.29L30.88,39l-.08.14.69,1.65-.18.1a7.58,7.58,0,0,1-.4-.68c-.18-.33-.31-.69-.5-1-.07-.13-.26-.19-.4-.28,0,.18-.14.38-.08.52.15.41.37.79.56,1.19,0,.08,0,.18-.06.35a4,4,0,0,1-.3-.42c-.24-.46-.44-.94-.72-1.37s-.61-.8-1.22-.6c-.09,0-.24-.11-.36-.17.11-.18.17-.47.33-.53a5.53,5.53,0,0,1,1.22-.27c1.1-.18,1.14-.23,1.24-1.36A4.36,4.36,0,0,1,30.74,35.79Z"/><path class="cls-1" d="M21.29,40.8c-.33-.58.36-1.15-.22-1.8l-.44.65c-.93-.88-.61.5-1.12.61a4.18,4.18,0,0,0-.09-.41c0-.14-.09-.28-.13-.42a1.31,1.31,0,0,0-.36.23c-.19.2-.36.42-.54.64l-.2-.17c.44-.63.9-1.24,1.31-1.89s.81-1.37,1.22-2.05l.15.06a4.24,4.24,0,0,0,0,.51,1,1,0,0,0,.87.91,19.77,19.77,0,0,1,2.07.6,7.49,7.49,0,0,0-.61,1.19,7.24,7.24,0,0,0-.16,1.25l-.23,0,.17-2-.31-.06-.38,1-.51-.35a4.92,4.92,0,0,0-.3.61A8.89,8.89,0,0,0,21.29,40.8Z"/><path class="cls-1" d="M28,52.28a9.33,9.33,0,0,1-.52-1.11c-.16-.47-.32-.57-.69-.18a1.15,1.15,0,0,1-.38.2c-.07-.13-.19-.27-.19-.41a5.9,5.9,0,0,1,.06-1.19c.14-.69,1.28-1.19,1.79-.76.18.16.25.76.13.86a1.19,1.19,0,0,0-.3,1.55,6.17,6.17,0,0,1,.26,1Z"/><path class="cls-1" d="M24.66,50.79a4.55,4.55,0,0,1,.43-3C25.53,48.34,25.3,49.91,24.66,50.79Z"/><path class="cls-1" d="M30.8,53.31l-.42-3.45A3.88,3.88,0,0,1,30.8,53.31Z"/><path class="cls-1" d="M40.41,36.55c0,.49-.75,1.09-1.15.92C39.1,37.4,39,37,39,36.78c0-.09.22-.29.35-.3A7.78,7.78,0,0,1,40.41,36.55Z"/><path class="cls-1" d="M1.87,29.54a5.36,5.36,0,0,1-.43-1.06c0-.12.35-.3.54-.46.09.17.25.32.26.49a6.2,6.2,0,0,1-.07,1Z"/><path class="cls-1" d="M30.79,24.82l-.67-.56.5-.58.72.71Z"/><path class="cls-1" d="M35.29,24.08c.47-.35.85-.5,1.23-.08a.52.52,0,0,1,.06.44C36.08,24.74,35.74,24.39,35.29,24.08Z"/><path class="cls-1" d="M26.94,53.62V51.71a2.07,2.07,0,0,1,.16,1.9Z"/><path class="cls-1" d="M17,46.86l-.32,2.33a3.56,3.56,0,0,1,.13-2.37Z"/><path class="cls-1" d="M4.9,12.26a7.53,7.53,0,0,1-.8-.41.38.38,0,0,1,0-.35.45.45,0,0,1,.39-.09,6.36,6.36,0,0,1,.63.64Z"/><path class="cls-1" d="M32.49,48.84l.57,1.76-.3.1-.51-1.79Z"/><path class="cls-1" d="M2.48,16.19,1.5,16c.07-.15.16-.44.2-.43a7.76,7.76,0,0,1,.9.28Z"/><path class="cls-1" d="M13.51,3.69,14,5.11C13.14,4.66,13,4.17,13.51,3.69Z"/><path class="cls-1" d="M46.4,36.81c-.46-.44-.56-1-.12-1.32l.31,1.26Z"/><path class="cls-1" d="M29,49.44c-.13-.24-.26-.48-.36-.72,0,0,.19-.18.25-.15a1.15,1.15,0,0,1,.58.34c.05.08-.18.35-.28.53Z"/><path class="cls-1" d="M.35,22.55l.47-.46c.13.14.37.32.35.44s-.26.32-.4.48Z"/><path class="cls-1" d="M22.11,24.17l-.38-.54c.16-.09.33-.27.47-.25s.3.21.45.33Z"/><path class="cls-1" d="M30.33,2.23a2.62,2.62,0,0,1-.31.21,4.48,4.48,0,0,1-.48-.58s.16-.17.24-.26Z"/><path class="cls-1" d="M47.41,32.92l.36-1.36C48.18,32.25,48.1,32.59,47.41,32.92Z"/><path class="cls-1" d="M6.91,9.9c-.53-.21-.91-.36-.73-1C6.57,9.14,6.89,9.32,6.91,9.9Z"/><path class="cls-1" d="M25.1,22.48v.81l-.78-.57,0-.16Z"/><path class="cls-1" d="M3,17.58a1.06,1.06,0,0,1-1-.48l.09-.2,1.05.5Z"/><path class="cls-1" d="M32.75,4.16c.64-.1.92.07.88.65l-1-.49Z"/><path class="cls-1" d="M1.24,19.67l1,.26-.06.29-1-.21Z"/><path class="cls-1" d="M30.46,20.84c.2.32.32.52.43.74a.68.68,0,0,1-.23.18,2.06,2.06,0,0,1-.47-.46C30.15,21.25,30.32,21.08,30.46,20.84Z"/><path class="cls-1" d="M21.91,49.06l-.37,1.2-.24-.07L21.66,49Z"/><path class="cls-1" d="M35.76,22.3l-.2,1.14-.3-.06.26-1.13Z"/><path class="cls-1" d="M6.94,7.56l.72.56-.17.23-.76-.52Z"/><path class="cls-1" d="M5.34,38.25l-.61-1,.2-.12.62,1Z"/><path class="cls-1" d="M66.47,43c0,1.38,0,2.76,0,4.13,0,1.06,0,2.12-.12,3.17a1.69,1.69,0,0,1-1.73,1.64c-1,0-2.11.1-3.17.09-1.27,0-2-.53-2-1.79-.11-2.17-.06-4.34-.08-6.52,0-1.22,0-2.43,0-3.65,0-2.2.46-3,2.79-3,.74,0,1.48,0,2.21,0a1.79,1.79,0,0,1,1.91,1.88c.07,1.35,0,2.71,0,4.06Zm-3.12,1.57h0c0-1.44,0-2.87,0-4.31,0-.4-.09-.77-.54-.78s-.53.4-.53.77c0,1,0,2,.06,3.06,0,1.77,0,3.55.05,5.33,0,.34-.07.83.41.86s.56-.42.56-.85C63.34,47.24,63.35,45.88,63.35,44.52Z"/><path class="cls-1" d="M103.6,44.56q0,3.06,0,6.12a1.34,1.34,0,0,1-1.34,1.49,1.38,1.38,0,0,1-1.34-1.52c0-4,0-8,0-12a2.61,2.61,0,0,1,.54-1.38,1,1,0,0,1,1.25-.26,1.15,1.15,0,0,1,.83,1.07c0,1.72,0,3.43,0,5.15v1.32Z"/><path class="cls-1" d="M115.07,63.16v-2c.84-.08,1.06.09,1,1S116,63.26,115.07,63.16Z"/><path class="cls-1" d="M154,63.26c0-.58,0-1.16,0-1.73,0-.11.24-.31.32-.29.24.06.62.18.66.34a3.16,3.16,0,0,1,0,1.3C154.89,63.36,154.45,63.32,154,63.26Z"/><path class="cls-1" d="M112,64.07c0,.62,0,1.24,0,1.86a.93.93,0,0,1-.11.56.84.84,0,0,1-.59.36c-.18,0-.48-.3-.48-.46,0-1.59,0-3.18,0-4.77,0-.18.36-.51.52-.49a.82.82,0,0,1,.58.5c.06.81,0,1.63,0,2.44Z"/><path class="cls-1" d="M82.06,64.25c0,.68,0,1.37,0,2a.86.86,0,0,1-.48.6.51.51,0,0,1-.71-.51c0-1.56-.06-3.11-.06-4.67,0-.35.26-.66.63-.55a.83.83,0,0,1,.51.58c.11.83.12,1.67.16,2.51Z"/><path class="cls-1" d="M102.89,64.73l.28-2.26h.12c.1.64.21,1.29.28,1.94C103.63,64.89,103.28,64.75,102.89,64.73Z"/><path class="cls-1" d="M135.51,62.41c.1.71.2,1.43.32,2.24-.21,0-.45.09-.59,0s-.13-.34-.12-.51c.06-.58.15-1.16.23-1.74Z"/><path class="cls-1" d="M131.45,61.21c.93-.14,1.1,0,1.14.77,0,1-.07,1.17-.61,1.27-.36.06-.54,0-.53-.43Z"/><path class="cls-1" d="M157.93,26.52a3.38,3.38,0,0,1-3.32,3.2,3.28,3.28,0,0,1-3.32-3.23,3.36,3.36,0,0,1,3.35-3.41A3.46,3.46,0,0,1,157.93,26.52Zm-5.26-.31h0c0,.55,0,1.11,0,1.67a.69.69,0,0,0,.32.43.52.52,0,0,0,.49-.09,1.51,1.51,0,0,0,.17-.73c0-.35.14-.48.48-.54.64-.12.89.28,1.11.76s.62.74,1,.49,0-.59-.13-.83c-.23-.42-.37-.73.14-1.09a1,1,0,0,0,.23-1.26,1,1,0,0,0-1-.69c-.8,0-1.6,0-2.39,0-.36,0-.55.16-.52.56S152.67,25.78,152.67,26.21Z"/><path d="M25,28.63l.27,5.9-.23,0a2.63,2.63,0,0,1-.18-.54c-.1-.61-.17-1.22-.25-1.83s-.21-.92-.81-1c-.3-.05-.46-.27-.31-.64a.86.86,0,0,0,0-.65,3.68,3.68,0,0,0-2.07-2c-.38-.13-.85.08-1.27,0-1.79-.21-3.48.34-5.22.54a5.84,5.84,0,0,1-.74,0A2.39,2.39,0,0,1,16,26.84a8.2,8.2,0,0,1,1.28-.23,17.34,17.34,0,0,1,1.76.12,2.39,2.39,0,0,0,.64.06,1.68,1.68,0,0,1,1.43.2c.14.08.39,0,.59-.06s.51-.1.6,0A3.63,3.63,0,0,1,23.1,28c.19.48.32.84,1,.61A3,3,0,0,1,25,28.63Z"/><path d="M28.25,29.7,27,30.48l-.2-.19a5.88,5.88,0,0,1,.49-.85,3.85,3.85,0,0,1,3-1.16,6.17,6.17,0,0,1,3.8,1c.29.17.6.3.89.47a2.69,2.69,0,0,1,.37.3l-.43.19-.27.1c.17.18.3.32.45.46s.53.33.24.71c0,.05.09.26.17.38s.29.35.44.52l-.11.14-1.84-1,.61-.27c-.44-.55-.87-1.1-1.33-1.61s-.72-.34-1.1.06a.72.72,0,0,1-.49.27c-.62-.08-1.37.35-1.85-.45,0-.08-.51.1-.88.18.43.54.75.91,1,1.31a1.68,1.68,0,0,1,.15.51,1.69,1.69,0,0,1-.6.14A2.09,2.09,0,0,1,28.25,29.7Z"/><path d="M21.34,30.23c-.59-.54-.59-.53-.95.14a.47.47,0,0,1-.31.26,10.31,10.31,0,0,1-1.24.07.37.37,0,0,1-.29-.19c-.24-.74-.68-.47-1.09-.21-.56.34-1.18.54-1.54,1.23-.25.49-.89.77-1.36,1.12a.27.27,0,0,1-.26,0,.34.34,0,0,1-.06-.27,5,5,0,0,0,.43-.63c.32-.83,1.15-1,1.79-1.38a.67.67,0,0,0,.19-.14c1.24-1.66,2.93-1.43,4.61-1a3.4,3.4,0,0,1,1.32.79,1,1,0,0,1,.23.81c-.08.31-.14.74-.7.7-.25,0-.5.3-.77.41s-.44.09-.5,0-.31-.52-.23-.69A5.18,5.18,0,0,1,21.34,30.23Zm.87.53-.09-.22c-.33.16-.66.3-1,.49,0,0-.06.23,0,.31s.23.06.29,0C21.71,31.17,22,31,22.21,30.76Z"/><path d="M36,28.93l-1.49-.79a2.55,2.55,0,0,0-.47-.23c-1-.2-2-.39-3.08-.57a1.06,1.06,0,0,0-.35,0c-.79.19-1.57.41-2.37.56a.69.69,0,0,1-.61-.23c-.19-.29.07-.43.34-.54a8.68,8.68,0,0,1,6.32-.3,8.84,8.84,0,0,1,2,1.12.93.93,0,0,1,.27.66C36.64,28.72,36.29,28.81,36,28.93Z"/><path d="M24.14,35.22l-.35,1c-.12-.06-.33-.11-.33-.18A.71.71,0,0,1,24.14,35.22Z"/><path d="M63.35,44.52c0,1.36,0,2.72,0,4.08,0,.43,0,.89-.56.85s-.4-.52-.41-.86c0-1.78,0-3.56-.05-5.33,0-1,0-2-.06-3.06,0-.37,0-.79.53-.77s.54.38.54.78c0,1.44,0,2.87,0,4.31Z"/><path d="M152.67,26.21c0-.43,0-.87,0-1.31s.16-.55.52-.56c.79,0,1.59,0,2.39,0a1,1,0,0,1,1,.69,1,1,0,0,1-.23,1.26c-.51.36-.37.67-.14,1.09.13.24.63.51.13.83s-.75.05-1-.49-.47-.88-1.11-.76c-.34.06-.48.19-.48.54a1.51,1.51,0,0,1-.17.73.52.52,0,0,1-.49.09.69.69,0,0,1-.32-.43c0-.56,0-1.12,0-1.67Zm1.86-.19v0a1.93,1.93,0,0,0,.59,0,2,2,0,0,0,.45-.33c-.14-.12-.27-.31-.42-.34a4.67,4.67,0,0,0-1.12,0c-.12,0-.27.26-.29.41s.19.25.32.3A1.23,1.23,0,0,0,154.53,26Z"/><path class="cls-1" d="M22.21,30.76c-.25.2-.5.41-.78.6-.06,0-.26,0-.29,0s0-.28,0-.31c.31-.19.64-.33,1-.49Z"/><path class="cls-1" d="M154.53,26a1.23,1.23,0,0,1-.47,0c-.13-.05-.33-.21-.32-.3s.17-.39.29-.41a4.67,4.67,0,0,1,1.12,0c.15,0,.28.22.42.34a2,2,0,0,1-.45.33,1.93,1.93,0,0,1-.59,0Z"/></g></g></svg>